<svg xmlns="http://www.w3.org/2000/svg" width="189" height="187" viewBox="0 0 189 187" fill="none"><g clip-path="url(#clip0_2019_3)"><mask id="mask0_2019_3" style="mask-type:luminance" maskUnits="userSpaceOnUse" x="-87" y="-226" width="360" height="600"><path d="M273 -226H-87V374H273V-226Z" fill="white"/></mask><g mask="url(#mask0_2019_3)"><path d="M174.427 135.887L139.528 114.859C135.099 112.213 129.237 113.204 126.061 117.137L116.198 129.432C114.931 131.052 112.588 131.554 110.701 130.611L108.771 129.653C102.372 126.515 94.4112 122.609 78.2582 107.953C62.1059 93.2972 57.6691 85.9612 54.1127 80.0805L53.0336 78.3034C51.9512 76.5672 52.4 74.3461 54.0856 73.096L66.8591 63.4523C70.9462 60.3455 71.8106 54.8224 68.8463 50.7591L45.2757 18.7537C42.2385 14.6163 36.2616 13.4578 31.7086 16.1235L17.3979 24.4963C12.9001 27.0727 9.63728 31.1789 8.29278 35.9545C3.3836 53.8084 7.80206 84.4091 56.731 128.793C95.6525 164.093 124.346 173.285 143.959 172.962C148.473 172.906 152.96 172.281 157.299 171.105C162.347 169.689 166.618 166.495 169.214 162.195L177.677 148.518C180.372 144.163 178.94 138.598 174.427 135.887Z" fill="#E63467"/><mask id="mask1_2019_3" style="mask-type:luminance" maskUnits="userSpaceOnUse" x="-146" y="-193" width="361" height="601"><path d="M-145.664 -192.667H214.336V407.333H-145.664V-192.667Z" fill="white"/></mask><g mask="url(#mask1_2019_3)"><path d="M108.48 22.3741C142.9 22.41 170.794 48.5604 170.832 80.8292C170.832 82.7283 172.474 84.2676 174.5 84.2676C176.525 84.2676 178.167 82.7283 178.167 80.8292C178.125 44.7638 146.95 15.5368 108.48 15.4973C106.454 15.4973 104.812 17.0366 104.812 18.9357C104.812 20.8348 106.454 22.3741 108.48 22.3741Z" fill="#E63467"/><path d="M107.95 44.1765C130.562 44.2015 148.887 61.3804 148.913 82.5794C148.913 84.5076 150.581 86.0704 152.637 86.0704C154.694 86.0704 156.361 84.5076 156.361 82.5794C156.33 57.5257 134.674 37.2231 107.95 37.1945C105.894 37.1945 104.227 38.7573 104.227 40.6855C104.227 42.6137 105.894 44.1765 107.95 44.1765Z" fill="#E63467"/><path d="M106.331 65.5105C116.539 65.5219 124.81 73.2767 124.823 82.8464C124.823 84.7613 126.478 86.3134 128.521 86.3134C130.563 86.3134 132.219 84.7613 132.219 82.8464C132.203 69.4489 120.622 58.5916 106.331 58.5765C104.289 58.5765 102.633 60.1286 102.633 62.0435C102.633 63.9585 104.289 65.5105 106.331 65.5105Z" fill="#E63467"/></g></g></g><defs><clipPath id="clip0_2019_3"><rect width="189" height="187" fill="white"/></clipPath></defs></svg>
